<?xml version="1.0" encoding="UTF-8"?>
<svg width="10px" height="29px" viewBox="0 0 10 29" version="1.1" xmlns="http://www.w3.org/2000/svg" xmlns:xlink="http://www.w3.org/1999/xlink">
    <g id="Page-1" stroke="none" stroke-width="1" fill="none" fill-rule="evenodd">
        <g id="Group" fill="#A1BFDA">
            <path d="M1.18,22.52 L5,26.36 L8.82,22.52 L10,23.7 L5,28.7 L0,23.7 L1.18,22.52 Z M4,0 L6,0 L6,2 L4,2 L4,0 Z M4,5 L6,5 L6,7 L4,7 L4,5 Z M4,10 L6,10 L6,12 L4,12 L4,10 Z M4,15 L6,15 L6,17 L4,17 L4,15 Z M4,20 L6,20 L6,22 L4,22 L4,20 Z" id="Combined-Shape"></path>
        </g>
    </g>
</svg>
