<?xml version="1.0" encoding="UTF-8"?>
<svg width="50px" height="50px" viewBox="0 0 50 50" version="1.1" xmlns="http://www.w3.org/2000/svg" xmlns:xlink="http://www.w3.org/1999/xlink">
    <!-- Generator: Sketch 40.1 (33804) - http://www.bohemiancoding.com/sketch -->
    <title>Combined Shape</title>
    <desc>Created with Sketch.</desc>
    <defs></defs>
    <g id="Page-1" stroke="none" stroke-width="1" fill="none" fill-rule="evenodd">
        <path d="M25,50 C38.8071187,50 50,38.8071187 50,25 C50,11.1928813 38.8071187,0 25,0 C11.1928813,0 0,11.1928813 0,25 C0,38.8071187 11.1928813,50 25,50 Z M19.8320312,15.2695312 C19.7278641,15.2695312 19.6236984,15.282552 19.5195312,15.3085938 C19.4153641,15.3346355 19.3177088,15.3736977 19.2265625,15.4257812 C19.0182281,15.5429693 18.8587245,15.6992178 18.7480469,15.8945312 C18.6373692,16.0898447 18.5820312,16.298176 18.5820312,16.5195312 L18.5625,33.9804688 C18.5625,34.201824 18.617838,34.4101553 18.7285156,34.6054688 C18.8391933,34.8007822 18.9986969,34.9570307 19.2070312,35.0742188 C19.2981775,35.1263023 19.3958328,35.1653645 19.5,35.1914062 C19.6041672,35.217448 19.7083328,35.2304688 19.8125,35.2304688 C19.9166672,35.2304688 20.0273432,35.2141929 20.1445312,35.1816406 C20.2617193,35.1490884 20.365885,35.1002607 20.4570312,35.0351562 L34.8515625,26.3046875 C35.0338551,26.2005203 35.1770828,26.0540374 35.28125,25.8652344 C35.3854172,25.6764313 35.4375,25.4713553 35.4375,25.25 C35.4375,25.0286447 35.3854172,24.8235687 35.28125,24.6347656 C35.1770828,24.4459626 35.0338551,24.2994797 34.8515625,24.1953125 L20.4765625,15.4648438 C20.3854162,15.3997393 20.2812506,15.3509116 20.1640625,15.3183594 C20.0468744,15.2858071 19.9361984,15.2695312 19.8320312,15.2695312 Z" id="Combined-Shape" fill="#FFFFFF"></path>
    </g>
</svg>