<?xml version="1.0" encoding="UTF-8"?>
<svg width="30px" height="29px" viewBox="0 0 30 29" version="1.1" xmlns="http://www.w3.org/2000/svg" xmlns:xlink="http://www.w3.org/1999/xlink">
    <!-- Generator: Sketch 40.1 (33804) - http://www.bohemiancoding.com/sketch -->
    <title>phone - simple-line-icons</title>
    <desc>Created with Sketch.</desc>
    <defs></defs>
    <g id="Page-1" stroke="none" stroke-width="1" fill="none" fill-rule="evenodd">
        <path d="M7.32142857,0.672379032 C7.8769869,1.43246348 8.48709985,2.29972631 9.15178571,3.27419355 C9.81647158,4.24866079 10.5357104,5.3303032 11.3095238,6.51915323 C11.5079375,6.83098274 11.5922621,7.18178569 11.5625,7.57157258 C11.5327379,7.96135948 11.3888902,8.3803741 11.1309524,8.82862903 C11.0317455,9.02352248 10.8630964,9.33534732 10.625,9.7641129 C10.3869036,10.1928785 10.079367,10.7483165 9.70238095,11.4304435 C10.1190497,12.0151239 10.6497984,12.6680071 11.2946429,13.3891129 C11.9394874,14.1102187 12.6884878,14.8897808 13.5416667,15.7278226 C14.4146869,16.5853538 15.21329,17.33081 15.9375,17.9642137 C16.66171,18.5976174 17.3115051,19.1189496 17.8869048,19.5282258 C18.5615113,19.1384389 19.1220216,18.8217418 19.5684524,18.578125 C20.0148832,18.3345082 20.3373006,18.163979 20.5357143,18.0665323 C20.7738107,17.9301068 21.0168638,17.8277893 21.264881,17.7595766 C21.5128981,17.6913639 21.7460307,17.6572581 21.9642857,17.6572581 C22.142858,17.6572581 22.3065469,17.6767471 22.4553571,17.7157258 C22.6041674,17.7547045 22.7480152,17.8131717 22.8869048,17.891129 C23.7797664,18.4173413 24.7222173,19.0068852 25.7142857,19.6597782 C26.7063542,20.3126713 27.7678515,21.028894 28.8988095,21.8084677 C29.0972232,21.9448932 29.2559518,22.1202946 29.375,22.3346774 C29.4940482,22.5490602 29.5734125,22.7829288 29.6130952,23.0362903 C29.6329366,23.3091411 29.603175,23.5868601 29.5238095,23.8694556 C29.444444,24.1520511 29.3055565,24.4395147 29.1071429,24.7318548 C29.0277774,24.8682803 28.908731,25.0339372 28.75,25.2288306 C28.591269,25.4237241 28.4027789,25.6478482 28.1845238,25.9012097 C27.9861101,26.1545712 27.7281762,26.4420347 27.4107143,26.7636089 C27.0932524,27.0851831 26.716272,27.4408583 26.2797619,27.8306452 C25.8630932,28.2204321 25.4811525,28.5127678 25.1339286,28.7076613 C24.7867046,28.9025547 24.4841283,29 24.2261905,29 L24.1666667,29 C23.1349155,28.9610213 22.0535771,28.7417695 20.922619,28.3422379 C19.791661,27.9427063 18.6011967,27.3726516 17.3511905,26.6320565 C16.1011842,25.8914614 14.7916735,24.9657314 13.422619,23.8548387 C12.0535646,22.7439461 10.6250074,21.4674131 9.13690476,20.0252016 C7.64880208,18.5635008 6.34425164,17.160289 5.22321429,15.8155242 C4.10217693,14.4707594 3.15972604,13.1844819 2.39583333,11.9566532 C1.63194062,10.7288245 1.05158929,9.5546091 0.654761905,8.43397177 C0.257934524,7.31333445 0.0396827381,6.25605336 0,5.26209677 C0,4.98924595 0.0992053571,4.68229337 0.297619048,4.34122984 C0.496032738,4.00016631 0.79364881,3.61525752 1.19047619,3.18649194 C1.58730357,2.75772635 1.94444286,2.39230662 2.26190476,2.09022177 C2.57936667,1.78813693 2.8670622,1.53965151 3.125,1.34475806 C3.36309643,1.16935396 3.59126875,1.00369702 3.80952381,0.847782258 C4.02777887,0.6918675 4.21626905,0.555444133 4.375,0.438508065 C4.59325506,0.282593306 4.82142738,0.170531255 5.05952381,0.102318548 C5.29762024,0.0341058417 5.55555417,0 5.83333333,0 C6.15079524,0 6.43353051,0.0535948942 6.68154762,0.16078629 C6.92956473,0.267977686 7.14285625,0.438506895 7.32142857,0.672379032 L7.32142857,0.672379032 Z M5.41666667,1.87096774 C5.01983929,2.14381857 4.63293839,2.44102662 4.25595238,2.76260081 C3.87896637,3.08417499 3.51190655,3.42036115 3.1547619,3.77116935 C2.79761726,4.12197756 2.51488199,4.42405787 2.30654762,4.67741935 C2.09821324,4.93078084 1.96428601,5.14516041 1.9047619,5.32056452 C1.94444464,6.19758503 2.15277589,7.13305955 2.5297619,8.12701613 C2.90674792,9.12097271 3.45237738,10.1782538 4.16666667,11.2988911 C4.88095595,12.4195285 5.76388363,13.5986161 6.81547619,14.8361895 C7.86706875,16.0737629 9.08729464,17.3746572 10.4761905,18.7389113 C11.8650863,20.1031654 13.1894778,21.3017421 14.4494048,22.3346774 C15.7093317,23.3676127 16.9097165,24.2348755 18.0505952,24.9364919 C19.191474,25.6381083 20.2728124,26.1740573 21.2946429,26.5443548 C22.3164734,26.9146524 23.2738051,27.129032 24.1666667,27.1875 C24.3055563,27.129032 24.503967,26.9926086 24.7619048,26.7782258 C25.0198426,26.563843 25.3273792,26.2812518 25.6845238,25.9304435 C26.0416685,25.5796353 26.3789667,25.2142156 26.6964286,24.8341734 C27.0138905,24.4541312 27.3214271,24.0692224 27.6190476,23.6794355 C27.6785717,23.6014781 27.7182539,23.5283942 27.7380952,23.4601815 C27.7579366,23.3919687 27.7579366,23.3286293 27.7380952,23.2701613 C26.5872958,22.4710982 25.5307588,21.7597477 24.5684524,21.1360887 C23.606146,20.5124297 22.7380991,19.9569917 21.9642857,19.4697581 C21.8849202,19.4697581 21.7956354,19.4843749 21.6964286,19.5136089 C21.5972217,19.5428429 21.4880958,19.5866933 21.3690476,19.6451613 C21.2103167,19.742608 20.9127006,19.908265 20.4761905,20.1421371 C20.0396804,20.3760092 19.4742098,20.6780895 18.7797619,21.0483871 L17.797619,21.6330645 L16.8154762,20.9899194 C16.1805524,20.5611538 15.4811546,20.010588 14.7172619,19.3382056 C13.9533692,18.6658233 13.1150839,17.8813889 12.202381,16.984879 C11.3095193,16.0883692 10.525797,15.2649567 9.85119048,14.5146169 C9.17658393,13.7642772 8.62103393,13.0772881 8.18452381,12.453629 L7.4702381,11.547379 L8.06547619,10.5241935 C8.4424622,9.84206648 8.74999881,9.29150075 8.98809524,8.87247984 C9.22619167,8.45345893 9.39484077,8.15625088 9.49404762,7.98084677 C9.55357173,7.86391071 9.59821414,7.75672092 9.62797619,7.65927419 C9.65773824,7.56182747 9.67261905,7.47412673 9.67261905,7.39616935 C8.97817113,6.32425539 8.31845551,5.32056919 7.69345238,4.38508065 C7.06844926,3.4495921 6.46825685,2.57258474 5.89285714,1.75403226 L5.83333333,1.75403226 C5.75396786,1.75403226 5.67956384,1.76377678 5.61011905,1.78326613 C5.54067426,1.80275547 5.47619077,1.83198905 5.41666667,1.87096774 L5.41666667,1.87096774 Z" id="phone---simple-line-icons" fill="#000000"></path>
    </g>
</svg>