<?xml version="1.0" encoding="UTF-8"?>
<svg width="30px" height="30px" viewBox="0 0 30 30" version="1.1" xmlns="http://www.w3.org/2000/svg" xmlns:xlink="http://www.w3.org/1999/xlink">
    <!-- Generator: Sketch 40.1 (33804) - http://www.bohemiancoding.com/sketch -->
    <title>user - simple-line-icons</title>
    <desc>Created with Sketch.</desc>
    <defs></defs>
    <g id="Page-1" stroke="none" stroke-width="1" fill="none" fill-rule="evenodd">
        <path d="M15,1.87683284 C15.7812539,1.87683284 16.5673789,2.02834648 17.3583984,2.3313783 C18.149418,2.63441012 18.852536,3.01563798 19.4677734,3.47507331 C20.0830109,3.93450865 20.5859355,4.43792493 20.9765625,4.98533724 C21.3671895,5.53274956 21.5625,6.06060352 21.5625,6.56891496 L21.5625,11.2609971 C21.5625,12.1603173 21.3525412,13.3284386 20.9326172,14.7653959 C20.5126932,16.2023532 19.794927,17.311824 18.7792969,18.0938416 C18.5253894,18.289346 18.3349616,18.5386104 18.2080078,18.8416422 C18.0810541,19.144674 18.0371092,19.4623639 18.0761719,19.7947214 C18.1152346,20.1270789 18.2324209,20.4252186 18.4277344,20.6891496 C18.6230479,20.9530805 18.867186,21.1534695 19.1601562,21.2903226 L27.3339844,25.1612903 C27.3535157,25.1612903 27.4853503,25.2248283 27.7294922,25.3519062 C27.973634,25.478984 28.0957031,25.7966739 28.0957031,26.3049853 L28.0957031,28.1231672 L1.875,28.1524927 L1.875,26.2463343 C1.875,25.8553255 1.97753804,25.586511 2.18261719,25.4398827 C2.38769634,25.2932544 2.54882754,25.2003912 2.66601562,25.1612903 L10.8984375,21.2609971 C11.1914077,21.124144 11.4306631,20.923755 11.6162109,20.659824 C11.8017587,20.3958931 11.9238278,20.1075284 11.9824219,19.7947214 C12.0214846,19.4623639 11.9775397,19.144674 11.8505859,18.8416422 C11.7236322,18.5386104 11.5332044,18.289346 11.2792969,18.0938416 C10.3027295,17.311824 9.58496323,16.2072408 9.12597656,14.7800587 C8.66698989,13.3528765 8.4375,12.1798677 8.4375,11.2609971 L8.4375,6.56891496 C8.4375,6.08015396 8.62792778,5.56207507 9.00878906,5.01466276 C9.38965034,4.46725044 9.892575,3.95894663 10.5175781,3.48973607 C11.1425812,3.02052551 11.8456992,2.63441012 12.6269531,2.3313783 C13.408207,2.02834648 14.1992147,1.87683284 15,1.87683284 L15,1.87683284 Z M15,0 C13.9648386,0 12.9394582,0.195501466 11.9238281,0.586510264 C10.908198,0.977519062 10.0048868,1.48582287 9.21386719,2.11143695 C8.42284761,2.73705103 7.78320557,3.4408563 7.29492188,4.2228739 C6.80663818,5.0048915 6.5625,5.78689736 6.5625,6.56891496 L6.5625,11.2609971 C6.5625,11.7693085 6.62109316,12.3900257 6.73828125,13.1231672 C6.85546934,13.8563087 7.05566265,14.6089893 7.33886719,15.3812317 C7.62207173,16.153474 7.988279,16.9110422 8.4375,17.6539589 C8.886721,18.3968757 9.44335605,19.0322554 10.1074219,19.5601173 L1.875,23.4604106 C1.875,23.4604106 1.56250312,23.6412494 0.9375,24.0029326 C0.312496875,24.3646157 0,24.7996065 0,25.3079179 L0,28.1524927 C0,28.6608041 0.180662256,29.0957949 0.541992188,29.457478 C0.903322119,29.8191611 1.34765361,30 1.875,30 L28.125,30 C28.632815,30 29.067381,29.8191611 29.4287109,29.457478 C29.7900409,29.0957949 29.9707031,28.6608041 29.9707031,28.1524927 L29.9707031,25.3079179 C29.9707031,24.7605056 29.663089,24.3157397 29.0478516,23.973607 C28.4326141,23.6314743 28.125,23.4604106 28.125,23.4604106 L19.9511719,19.5601173 C20.5957063,19.0518059 21.1425759,18.4408638 21.5917969,17.7272727 C22.0410179,17.0136817 22.4023424,16.2707761 22.6757812,15.4985337 C22.9492201,14.7262913 23.1445307,13.9687232 23.2617188,13.2258065 C23.3789068,12.4828897 23.4375,11.8279598 23.4375,11.2609971 L23.4375,6.56891496 C23.4375,5.78689736 23.1884791,5.0048915 22.6904297,4.2228739 C22.1923803,3.4408563 21.5478555,2.73705103 20.7568359,2.11143695 C19.9658164,1.48582287 19.0673878,0.977519062 18.0615234,0.586510264 C17.055659,0.195501466 16.0351614,0 15,0 L15,0 L15,0 Z" id="user---simple-line-icons" fill="#000000"></path>
    </g>
</svg>