<?xml version="1.0" encoding="UTF-8"?>
<svg width="30px" height="30px" viewBox="0 0 30 30" version="1.1" xmlns="http://www.w3.org/2000/svg" xmlns:xlink="http://www.w3.org/1999/xlink">
    <!-- Generator: Sketch 40.1 (33804) - http://www.bohemiancoding.com/sketch -->
    <title>Envelope-letter - simple-line-icons</title>
    <desc>Created with Sketch.</desc>
    <defs></defs>
    <g id="Page-1" stroke="none" stroke-width="1" fill="none" fill-rule="evenodd">
        <path d="M29.9707031,13.8574219 C29.9511718,13.7011711 29.9121097,13.5449227 29.8535156,13.3886719 C29.7949216,13.2324211 29.7167974,13.0957037 29.6191406,12.9785156 L29.6191406,12.9785156 L29.5898438,12.9492188 C29.5507811,12.8906247 29.5019534,12.8320315 29.4433594,12.7734375 L29.2675781,12.5976562 L24.375,7.67578125 L24.375,4.65820312 C24.375,4.40429561 24.2822275,4.18457124 24.0966797,3.99902344 C23.9111319,3.81347563 23.6914075,3.72070312 23.4375,3.72070312 L20.4785156,3.72070312 L17.0507812,0.791015625 C16.5234349,0.263669238 15.859379,0 15.0585938,0 C14.2578085,0 13.5937526,0.263669238 13.0664062,0.791015625 L9.66796875,3.72070312 L6.5625,3.72070312 C6.30859248,3.72070312 6.08886812,3.81347563 5.90332031,3.99902344 C5.71777251,4.18457124 5.625,4.40429561 5.625,4.65820312 L5.625,7.734375 L0.849609375,12.5097656 C0.595701855,12.6855478 0.390625781,12.9101549 0.234375,13.1835938 C0.0781242187,13.4570326 0,13.759764 0,14.0917969 L0,28.125 C0,28.6523464 0.18554502,29.0966779 0.556640625,29.4580078 C0.92773623,29.8193377 1.36718496,30 1.875,30 L28.125,30 C28.632815,30 29.0722638,29.8193377 29.4433594,29.4580078 C29.814455,29.0966779 30,28.6523464 30,28.125 L30,14.1210938 L30,13.9892578 C30,13.9404294 29.9902345,13.8964846 29.9707031,13.8574219 L29.9707031,13.8574219 Z M7.88085938,21.2695312 L1.875,26.8359375 L1.875,15.9667969 L7.88085938,21.2695312 L7.88085938,21.2695312 Z M9.69726562,22.1484375 C9.75585967,22.1093748 9.80957007,22.0703127 9.85839844,22.03125 C9.90722681,21.9921873 9.96093721,21.9433597 10.0195312,21.8847656 C10.0390626,21.8652343 10.0585937,21.8408205 10.078125,21.8115234 C10.0976563,21.7822264 10.1171874,21.7480471 10.1367188,21.7089844 L14.1796875,17.9589844 C14.2773442,17.880859 14.3896478,17.8173831 14.5166016,17.7685547 C14.6435553,17.7197263 14.7753899,17.6953125 14.9121094,17.6953125 C15.0488288,17.6953125 15.1806634,17.7197263 15.3076172,17.7685547 C15.4345709,17.8173831 15.537109,17.8710935 15.6152344,17.9296875 L26.8652344,28.125 L3.22265625,28.125 L9.69726562,22.1484375 L9.69726562,22.1484375 Z M22.2070312,21.3867188 L28.125,16.1425781 L28.125,26.71875 L22.2070312,21.3867188 L22.2070312,21.3867188 Z M26.3085938,12.2167969 L26.2792969,12.2167969 L27.890625,13.828125 L24.375,16.9628906 L24.375,10.2832031 L26.3085938,12.2167969 L26.3085938,12.2167969 Z M14.3847656,2.109375 C14.4824224,2.03124961 14.5898432,1.96777368 14.7070312,1.91894531 C14.8242193,1.87011694 14.9414057,1.84570312 15.0585938,1.84570312 C15.1757818,1.84570312 15.2929682,1.87011694 15.4101562,1.91894531 C15.5273443,1.96777368 15.6347651,2.03124961 15.7324219,2.109375 L17.6074219,3.72070312 L12.5097656,3.72070312 L14.3847656,2.109375 L14.3847656,2.109375 Z M22.5,5.59570312 L22.5,18.6328125 L20.8300781,20.1269531 L16.8164062,16.4941406 C16.2695285,16.064451 15.639652,15.8447266 14.9267578,15.8349609 C14.2138636,15.8251953 13.5644561,16.0546852 12.9785156,16.5234375 L9.2578125,19.9804688 L7.5,18.4277344 L7.5,5.59570312 L22.5,5.59570312 L22.5,5.59570312 Z M3.046875,12.9785156 L5.625,10.4003906 L5.625,16.7578125 L2.19726562,13.7402344 L2.98828125,12.9785156 L3.046875,12.9785156 L3.046875,12.9785156 Z" id="Envelope-letter---simple-line-icons" fill="#000000"></path>
    </g>
</svg>